<svg width="34" height="32" viewBox="0 0 34 32" fill="none" xmlns="http://www.w3.org/2000/svg" xmlns:xlink="http://www.w3.org/1999/xlink">
<line x1="2" y1="14.5" x2="34" y2="14.5" stroke="#212121" stroke-width="1.5" stroke-miterlimit="3.999327" stroke-linecap="round" stroke-linejoin="round"/>
<path d="M17.012,31.129C17.636,31.674 18.583,31.611 19.129,30.988C19.674,30.364 19.611,29.417 18.988,28.871L17.012,31.129ZM2,16L1.012,14.871C0.687,15.156 0.5,15.567 0.5,16C0.5,16.433 0.687,16.844 1.012,17.129L2,16ZM18.988,3.129C19.611,2.583 19.674,1.636 19.129,1.012C18.583,0.389 17.636,0.326 17.012,0.871L18.988,3.129ZM18.988,28.871L2.988,14.871L1.012,17.129L17.012,31.129L18.988,28.871ZM2.988,17.129L18.988,3.129L17.012,0.871L1.012,14.871L2.988,17.129Z" fill="#212121"/>
</svg>
