<svg width="60" height="58" viewBox="0 0 60 58" fill="none" xmlns="http://www.w3.org/2000/svg" xmlns:xlink="http://www.w3.org/1999/xlink">
<path d="M36.297,15.553C36.297,16.381 36.968,17.053 37.797,17.053C38.625,17.053 39.297,16.381 39.297,15.553L36.297,15.553ZM39.297,42.575C39.297,41.747 38.625,41.075 37.797,41.075C36.968,41.075 36.297,41.747 36.297,42.575L39.297,42.575ZM39.297,15.553L39.297,12.831L36.297,12.831L36.297,15.553L39.297,15.553ZM39.297,12.831C39.297,6.068 33.813,0.583 27.049,0.583L27.049,3.583C32.156,3.583 36.297,7.724 36.297,12.831L39.297,12.831ZM27.049,0.583L12.83,0.583L12.83,3.583L27.049,3.583L27.049,0.583ZM12.83,0.583C6.069,0.583 0.585,6.068 0.585,12.831L3.585,12.831C3.585,7.724 7.726,3.583 12.83,3.583L12.83,0.583ZM0.585,12.831L0.585,45.294L3.585,45.294L3.585,12.831L0.585,12.831ZM0.585,45.294C0.585,52.057 6.069,57.542 12.83,57.542L12.83,54.542C7.726,54.542 3.585,50.401 3.585,45.294L0.585,45.294ZM12.83,57.542L27.078,57.542L27.078,54.542L12.83,54.542L12.83,57.542ZM27.078,57.542C33.824,57.542 39.297,52.073 39.297,45.326L36.297,45.326C36.297,50.415 32.168,54.542 27.078,54.542L27.078,57.542ZM39.297,45.326L39.297,42.575L36.297,42.575L36.297,45.326L39.297,45.326Z" fill="#E0E0E0"/>
<path d="M57.611,30.562C58.439,30.562 59.111,29.891 59.111,29.062C59.111,28.234 58.439,27.562 57.611,27.562L57.611,30.562ZM22.491,27.562C21.663,27.562 20.991,28.234 20.991,29.062C20.991,29.891 21.663,30.562 22.491,30.562L22.491,27.562ZM57.611,27.562L22.491,27.562L22.491,30.562L57.611,30.562L57.611,27.562Z" fill="#E0E0E0"/>
<path d="M50.128,19.497C49.541,18.913 48.592,18.915 48.007,19.502C47.423,20.089 47.425,21.039 48.012,21.623L50.128,19.497ZM57.61,29.062L58.669,30.125C58.951,29.843 59.11,29.461 59.11,29.062C59.11,28.663 58.951,28.281 58.668,27.999L57.61,29.062ZM48.012,36.504C47.425,37.089 47.423,38.039 48.007,38.626C48.592,39.213 49.542,39.215 50.129,38.63L48.012,36.504ZM48.012,21.623L56.552,30.125L58.668,27.999L50.128,19.497L48.012,21.623ZM56.552,27.999L48.012,36.504L50.129,38.63L58.669,30.125L56.552,27.999Z" fill="#E0E0E0"/>
</svg>
