<svg width="40" height="34" viewBox="0 0 40 34" fill="none" xmlns="http://www.w3.org/2000/svg" xmlns:xlink="http://www.w3.org/1999/xlink">
<path d="M24.823,16.106C24.823,18.769 22.663,20.928 19.999,20.928L19.999,23.928C24.319,23.928 27.823,20.427 27.823,16.106L24.823,16.106ZM19.999,20.928C17.335,20.928 15.177,18.77 15.177,16.106L12.177,16.106C12.177,20.427 15.679,23.928 19.999,23.928L19.999,20.928ZM15.177,16.106C15.177,13.44 17.336,11.282 19.999,11.282L19.999,8.282C15.678,8.282 12.177,11.784 12.177,16.106L15.177,16.106ZM19.999,11.282C22.663,11.282 24.823,13.441 24.823,16.106L27.823,16.106C27.823,11.783 24.319,8.282 19.999,8.282L19.999,11.282Z" fill="#242424"/>
<path d="M19.996,29.21C19.168,29.21 18.496,29.881 18.496,30.71C18.496,31.538 19.168,32.21 19.996,32.21L19.996,29.21ZM38.5,16.106L39.878,16.698C40.041,16.32 40.041,15.892 39.878,15.514L38.5,16.106ZM19.996,0.002C19.168,0.002 18.496,0.673 18.496,1.502C18.496,2.33 19.168,3.002 19.996,3.002L19.996,0.002ZM20.004,3.002C20.832,3.002 21.504,2.33 21.504,1.502C21.504,0.673 20.832,0.002 20.004,0.002L20.004,3.002ZM1.5,16.106L0.122,15.514C-0.041,15.892 -0.041,16.32 0.122,16.698L1.5,16.106ZM20.004,32.21C20.832,32.21 21.504,31.538 21.504,30.71C21.504,29.881 20.832,29.21 20.004,29.21L20.004,32.21ZM19.996,32.21C28.402,32.21 35.805,26.178 39.878,16.698L37.122,15.514C33.351,24.29 26.822,29.21 19.996,29.21L19.996,32.21ZM39.878,15.514C35.805,6.034 28.402,0.002 19.996,0.002L19.996,3.002C26.822,3.002 33.351,7.922 37.122,16.698L39.878,15.514ZM19.996,3.002L20.004,3.002L20.004,0.002L19.996,0.002L19.996,3.002ZM20.004,0.002C11.598,0.002 4.195,6.034 0.122,15.514L2.878,16.698C6.649,7.922 13.178,3.002 20.004,3.002L20.004,0.002ZM0.122,16.698C4.195,26.178 11.598,32.21 20.004,32.21L20.004,29.21C13.178,29.21 6.649,24.29 2.878,15.514L0.122,16.698ZM20.004,29.21L19.996,29.21L19.996,32.21L20.004,32.21L20.004,29.21Z" fill="#242424"/>
</svg>
