<svg width="18" height="16" viewBox="0 0 18 16" fill="none" xmlns="http://www.w3.org/2000/svg" xmlns:xlink="http://www.w3.org/1999/xlink">
<path d="M2.061,8.939C1.475,8.354 0.525,8.354 -0.061,8.939C-0.646,9.525 -0.646,10.475 -0.061,11.061L2.061,8.939ZM4.5,13.5L3.439,14.561C3.725,14.846 4.114,15.005 4.517,15C4.921,14.995 5.306,14.828 5.585,14.536L4.5,13.5ZM16.085,3.536C16.657,2.936 16.635,1.987 16.036,1.415C15.436,0.843 14.487,0.865 13.915,1.464L16.085,3.536ZM-0.061,11.061L3.439,14.561L5.561,12.439L2.061,8.939L-0.061,11.061ZM5.585,14.536L16.085,3.536L13.915,1.464L3.415,12.464L5.585,14.536Z" fill="#FFFFFF"/>
</svg>
