<svg width="18" height="14" viewBox="0 0 18 14" fill="none" xmlns="http://www.w3.org/2000/svg" xmlns:xlink="http://www.w3.org/1999/xlink">
<path d="M2.061,7.939C1.475,7.354 0.525,7.354 -0.061,7.939C-0.646,8.525 -0.646,9.475 -0.061,10.061L2.061,7.939ZM4.5,12.5L3.439,13.561C3.725,13.846 4.114,14.005 4.517,14C4.921,13.995 5.306,13.828 5.585,13.536L4.5,12.5ZM16.085,2.536C16.657,1.936 16.635,0.987 16.036,0.415C15.436,-0.157 14.487,-0.135 13.915,0.464L16.085,2.536ZM-0.061,10.061L3.439,13.561L5.561,11.439L2.061,7.939L-0.061,10.061ZM5.585,13.536L16.085,2.536L13.915,0.464L3.415,11.464L5.585,13.536Z" fill="#FFFFFF"/>
</svg>
